# xmcd
#
# Track frame offsets:
#	150
#	18392
#	34107
#	51801
#	67735
#	80693
#	98015
#	117343
#	134637
#
# Disc length: 2056 seconds
#
# Revision: 1
# Processed by: cddbd v1.5.2PL0 Copyright (c) Steve Scherf et al.
# Submitted via: EasyCDDAExtractor 15.3.0.1
#
DISCID=72080609
DTITLE=Baillie and The Boys
DYEAR=1987
DGENRE=Country
TTITLE0=Fire In The Wire
TTITLE1=Oh Heart
TTITLE2=Waitin' Out The Storm
TTITLE3=You Fool
TTITLE4=Long Shot
TTITLE5=He's Letting Go
TTITLE6=Slow All Night
TTITLE7=Wilder Days
TTITLE8=This Is Where I Came In
EXTD=
EXTT0=
EXTT1=
EXTT2=
EXTT3=
EXTT4=
EXTT5=
EXTT6=
EXTT7=
EXTT8=
PLAYORDER=
